<svg width="390" height="111" viewBox="0 0 390 111" fill="none" xmlns="http://www.w3.org/2000/svg">
<line x1="1.06066" y1="1.93934" x2="109.061" y2="109.939" stroke="#FF0000" stroke-width="3"/>
<line y1="-1.5" x2="152.735" y2="-1.5" transform="matrix(-0.707107 0.707107 0.707107 0.707107 390 3)" stroke="#FF0000" stroke-width="3"/>
<line x1="108" y1="109.5" x2="282" y2="109.5" stroke="#FF0000" stroke-width="3"/>
<line y1="1.5" x2="387" y2="1.5" stroke="#FF0000" stroke-width="3"/>
<path d="M109.74 68V38.9091H121.218C123.424 38.9091 125.304 39.3305 126.857 40.1733C128.41 41.0066 129.594 42.1667 130.408 43.6534C131.232 45.1307 131.644 46.8352 131.644 48.767C131.644 50.6989 131.227 52.4034 130.394 53.8807C129.561 55.358 128.353 56.5085 126.772 57.3324C125.2 58.1562 123.296 58.5682 121.061 58.5682H113.746V53.6392H120.067C121.251 53.6392 122.226 53.4356 122.993 53.0284C123.77 52.6117 124.347 52.0388 124.726 51.3097C125.114 50.571 125.309 49.7235 125.309 48.767C125.309 47.8011 125.114 46.9583 124.726 46.2386C124.347 45.5095 123.77 44.946 122.993 44.5483C122.217 44.1411 121.232 43.9375 120.039 43.9375H115.891V68H109.74ZM140.896 38.9091V68H134.845V38.9091H140.896ZM151.285 68.4119C149.893 68.4119 148.653 68.1705 147.564 67.6875C146.475 67.1951 145.613 66.4706 144.978 65.5142C144.353 64.5483 144.041 63.3456 144.041 61.9062C144.041 60.6941 144.263 59.6761 144.709 58.8523C145.154 58.0284 145.76 57.3655 146.527 56.8636C147.294 56.3617 148.165 55.983 149.14 55.7273C150.125 55.4716 151.157 55.2917 152.237 55.1875C153.506 55.0549 154.529 54.9318 155.305 54.8182C156.082 54.6951 156.645 54.5152 156.995 54.2784C157.346 54.0417 157.521 53.6913 157.521 53.2273V53.142C157.521 52.2424 157.237 51.5464 156.669 51.054C156.11 50.5616 155.315 50.3153 154.282 50.3153C153.193 50.3153 152.327 50.5568 151.683 51.0398C151.039 51.5133 150.613 52.1098 150.405 52.8295L144.808 52.375C145.092 51.0492 145.651 49.9034 146.484 48.9375C147.317 47.9621 148.392 47.214 149.709 46.6932C151.034 46.1629 152.568 45.8977 154.311 45.8977C155.523 45.8977 156.683 46.0398 157.791 46.3239C158.908 46.608 159.898 47.0483 160.76 47.6449C161.631 48.2415 162.317 49.0085 162.819 49.946C163.321 50.8741 163.572 51.9867 163.572 53.2841V68H157.834V64.9744H157.663C157.313 65.6562 156.844 66.2576 156.257 66.7784C155.67 67.2898 154.964 67.6922 154.14 67.9858C153.317 68.2699 152.365 68.4119 151.285 68.4119ZM153.018 64.2358C153.908 64.2358 154.694 64.0606 155.376 63.7102C156.058 63.3504 156.593 62.8674 156.981 62.2614C157.37 61.6553 157.564 60.9687 157.564 60.2017V57.8864C157.374 58.0095 157.114 58.1231 156.782 58.2273C156.46 58.322 156.096 58.4119 155.689 58.4972C155.281 58.5729 154.874 58.6439 154.467 58.7102C154.06 58.767 153.691 58.8191 153.359 58.8665C152.649 58.9706 152.029 59.1364 151.498 59.3636C150.968 59.5909 150.556 59.8987 150.263 60.2869C149.969 60.6657 149.822 61.1392 149.822 61.7074C149.822 62.5312 150.12 63.161 150.717 63.5966C151.323 64.0227 152.09 64.2358 153.018 64.2358ZM170.541 76.1818C169.774 76.1818 169.055 76.1203 168.382 75.9972C167.719 75.8835 167.17 75.7367 166.735 75.5568L168.098 71.0398C168.808 71.2576 169.448 71.3759 170.016 71.3949C170.593 71.4138 171.091 71.2813 171.507 70.9972C171.933 70.7131 172.279 70.2301 172.544 69.5483L172.899 68.625L165.073 46.1818H171.436L175.953 62.2045H176.181L180.74 46.1818H187.146L178.666 70.358C178.259 71.5322 177.705 72.5549 177.004 73.4261C176.313 74.3068 175.437 74.9839 174.377 75.4574C173.316 75.9403 172.038 76.1818 170.541 76.1818ZM222.587 38.9091V68H217.274L204.618 49.6903H204.405V68H198.254V38.9091H203.652L216.209 57.2045H216.465V38.9091H222.587ZM236.733 68.4261C234.526 68.4261 232.618 67.9574 231.008 67.0199C229.408 66.0729 228.172 64.7566 227.301 63.071C226.43 61.3759 225.994 59.411 225.994 57.1761C225.994 54.9223 226.43 52.9527 227.301 51.267C228.172 49.572 229.408 48.2557 231.008 47.3182C232.618 46.3712 234.526 45.8977 236.733 45.8977C238.939 45.8977 240.843 46.3712 242.443 47.3182C244.053 48.2557 245.293 49.572 246.165 51.267C247.036 52.9527 247.472 54.9223 247.472 57.1761C247.472 59.411 247.036 61.3759 246.165 63.071C245.293 64.7566 244.053 66.0729 242.443 67.0199C240.843 67.9574 238.939 68.4261 236.733 68.4261ZM236.761 63.7386C237.765 63.7386 238.603 63.4545 239.275 62.8864C239.948 62.3087 240.454 61.5227 240.795 60.5284C241.146 59.5341 241.321 58.4025 241.321 57.1335C241.321 55.8646 241.146 54.733 240.795 53.7386C240.454 52.7443 239.948 51.9583 239.275 51.3807C238.603 50.803 237.765 50.5142 236.761 50.5142C235.748 50.5142 234.896 50.803 234.204 51.3807C233.523 51.9583 233.007 52.7443 232.656 53.7386C232.315 54.733 232.145 55.8646 232.145 57.1335C232.145 58.4025 232.315 59.5341 232.656 60.5284C233.007 61.5227 233.523 62.3087 234.204 62.8864C234.896 63.4545 235.748 63.7386 236.761 63.7386ZM254.483 68L248.546 46.1818H254.668L258.049 60.8409H258.247L261.77 46.1818H267.779L271.358 60.7557H271.543L274.867 46.1818H280.975L275.051 68H268.645L264.895 54.2784H264.625L260.875 68H254.483Z" fill="#FF0000"/>
</svg>
