<svg width="26" height="19" viewBox="0 0 26 19" fill="none" xmlns="http://www.w3.org/2000/svg">
<path d="M25.5 14C25.5 14.501 25.2379 15.0344 24.642 15.5763C24.046 16.1183 23.1556 16.6294 22.0129 17.0689C19.7309 17.9465 16.5445 18.5 13 18.5C9.45547 18.5 6.26908 17.9465 3.9871 17.0689C2.84444 16.6294 1.95405 16.1183 1.35799 15.5763C0.762077 15.0344 0.5 14.501 0.5 14C0.5 13.499 0.762077 12.9656 1.35799 12.4237C1.95405 11.8817 2.84444 11.3706 3.9871 10.9311C6.26908 10.0535 9.45547 9.5 13 9.5C16.5445 9.5 19.7309 10.0535 22.0129 10.9311C23.1556 11.3706 24.046 11.8817 24.642 12.4237C25.2379 12.9656 25.5 13.499 25.5 14Z" fill="#5A5A5A" stroke="#272727"/>
<path d="M25.5 10C25.5 10.501 25.2379 11.0344 24.642 11.5763C24.046 12.1183 23.1556 12.6294 22.0129 13.0689C19.7309 13.9465 16.5445 14.5 13 14.5C9.45547 14.5 6.26908 13.9465 3.9871 13.0689C2.84444 12.6294 1.95405 12.1183 1.35799 11.5763C0.762077 11.0344 0.5 10.501 0.5 10C0.5 9.49898 0.762077 8.96558 1.35799 8.4237C1.95405 7.88169 2.84444 7.37062 3.9871 6.93114C6.26908 6.05345 9.45547 5.5 13 5.5C16.5445 5.5 19.7309 6.05345 22.0129 6.93114C23.1556 7.37062 24.046 7.88169 24.642 8.4237C25.2379 8.96558 25.5 9.49898 25.5 10Z" fill="#5A5A5A" stroke="#272727"/>
<path d="M25.5 5C25.5 5.50102 25.2379 6.03442 24.642 6.5763C24.046 7.11831 23.1556 7.62938 22.0129 8.06886C19.7309 8.94655 16.5445 9.5 13 9.5C9.45547 9.5 6.26908 8.94655 3.9871 8.06886C2.84444 7.62938 1.95405 7.11831 1.35799 6.5763C0.762077 6.03442 0.5 5.50102 0.5 5C0.5 4.49898 0.762077 3.96558 1.35799 3.4237C1.95405 2.88169 2.84444 2.37062 3.9871 1.93114C6.26908 1.05345 9.45547 0.5 13 0.5C16.5445 0.5 19.7309 1.05345 22.0129 1.93114C23.1556 2.37062 24.046 2.88169 24.642 3.4237C25.2379 3.96558 25.5 4.49898 25.5 5Z" fill="#5A5A5A" stroke="#272727"/>
</svg>
